<svg xmlns="http://www.w3.org/2000/svg" width="16" height="16" viewBox="0 0 16 16">
  <g fill="none" fill-rule="evenodd" transform="translate(0 2)">
    <rect width="16" height="12" fill="#E25950" rx="2"/>
    <path fill="#FCD669" d="M7,1.5 C7,1.22385763 7.22385763,1 7.5,1 C7.77614237,1 8,1.22385763 8,1.5 C8,1.77614237 7.77614237,2 7.5,2 C7.22385763,2 7,1.77614237 7,1.5 Z M8,3.5 C8,3.22385763 8.22385763,3 8.5,3 C8.77614237,3 9,3.22385763 9,3.5 C9,3.77614237 8.77614237,4 8.5,4 C8.22385763,4 8,3.77614237 8,3.5 Z M8,5.5 C8,5.22385763 8.22385763,5 8.5,5 C8.77614237,5 9,5.22385763 9,5.5 C9,5.77614237 8.77614237,6 8.5,6 C8.22385763,6 8,5.77614237 8,5.5 Z M7,7.5 C7,7.22385763 7.22385763,7 7.5,7 C7.77614237,7 8,7.22385763 8,7.5 C8,7.77614237 7.77614237,8 7.5,8 C7.22385763,8 7,7.77614237 7,7.5 Z M3.47130192,5.96316354 L1.71502363,6.9714285 L2.15045443,5.00243917 L0.971302165,3.52484897 L2.74254605,3.42654201 L3.471302,1.9 L4.2000584,3.42654238 L5.97130217,3.52485019 L4.79214941,5.00243949 L5.28363334,6.97142857 L3.47130192,5.96316354 Z"/>
  </g>
</svg>
