<svg t="1791368536724" class="icon" viewBox="0 0 1024 1024" version="1.1" xmlns="http://www.w3.org/2000/svg" p-id="37789" width="200" height="200"><path d="M983.772 312.687a510.317 510.317 0 0 0-109.715-162.67A511.121 511.121 0 0 0 512.001 0.003a508.78 508.78 0 0 0-362.056 149.943A511.121 511.121 0 0 0 0.002 512a508.78 508.78 0 0 0 149.943 362.056A511.121 511.121 0 0 0 512 1023.854c69.12 0 136.192-13.532 199.314-40.229a508.342 508.342 0 0 0 162.67-109.714A511.121 511.121 0 0 0 1024 512.001c0-69.12-13.458-136.192-40.155-199.314zM928.476 687.91a451.583 451.583 0 0 1-96.841 143.726 451.583 451.583 0 0 1-639.268 0 451.583 451.583 0 0 1 0-639.268 451.583 451.583 0 0 1 639.268 0 451.583 451.583 0 0 1 96.84 495.542zM665.747 574.246l-232.886 143.36a36.571 36.571 0 0 1-55.735-31.086V337.483a36.571 36.571 0 0 1 55.735-31.16l232.886 143.36a73.143 73.143 0 0 1 0 124.563z" p-id="37790"></path></svg>